<svg width="1219" height="68" viewBox="0 0 1219 68" fill="none" xmlns="http://www.w3.org/2000/svg">
<mask id="path-1-inside-1_1_4928" fill="white">
<path d="M3 0H1219V64H3V0Z"/>
</mask>
<path d="M3 1H1219V-1H3V1Z" fill="#7F56D9" mask="url(#path-1-inside-1_1_4928)"/>
<g filter="url(#filter0_dddi_1_4928)">
<g clip-path="url(#clip0_1_4928)">
<path d="M3 44.8C3 40.3196 3 38.0794 3.87195 36.3681C4.63893 34.8628 5.86278 33.6389 7.36808 32.8719C9.07937 32 11.3196 32 15.8 32H22.2C26.6804 32 28.9206 32 30.6319 32.8719C32.1372 33.6389 33.3611 34.8628 34.1281 36.3681C35 38.0794 35 40.3196 35 44.8V51.2C35 55.6804 35 57.9206 34.1281 59.6319C33.3611 61.1372 32.1372 62.3611 30.6319 63.1281C28.9206 64 26.6804 64 22.2 64H15.8C11.3196 64 9.07937 64 7.36808 63.1281C5.86278 62.3611 4.63893 61.1372 3.87195 59.6319C3 57.9206 3 55.6804 3 51.2V44.8Z" fill="white"/>
<path d="M3 44.8C3 40.3196 3 38.0794 3.87195 36.3681C4.63893 34.8628 5.86278 33.6389 7.36808 32.8719C9.07937 32 11.3196 32 15.8 32H22.2C26.6804 32 28.9206 32 30.6319 32.8719C32.1372 33.6389 33.3611 34.8628 34.1281 36.3681C35 38.0794 35 40.3196 35 44.8V51.2C35 55.6804 35 57.9206 34.1281 59.6319C33.3611 61.1372 32.1372 62.3611 30.6319 63.1281C28.9206 64 26.6804 64 22.2 64H15.8C11.3196 64 9.07937 64 7.36808 63.1281C5.86278 62.3611 4.63893 61.1372 3.87195 59.6319C3 57.9206 3 55.6804 3 51.2V44.8Z" fill="url(#paint0_linear_1_4928)" fill-opacity="0.2"/>
<g opacity="0.14" clip-path="url(#clip1_1_4928)">
<path fill-rule="evenodd" clip-rule="evenodd" d="M18.9612 32H19.0388V33.9612C20.8929 33.9663 22.6625 34.3307 24.2816 34.9885V32H24.3592V35.0204C25.7339 35.5886 26.9986 36.3688 28.1126 37.3203H29.602V32H29.6796V37.3203H35V37.398H29.6796V38.8873C30.6311 40.0013 31.4113 41.266 31.9796 42.6406H35V42.7183H32.0114C32.6693 44.3373 33.0337 46.1069 33.0388 47.9609H35V48.0386H33.0388C33.0338 49.8927 32.6694 51.6622 32.0116 53.2812H35V53.3589H31.9798C31.4115 54.7337 30.6312 55.9986 29.6796 57.1128V58.6016H35V58.6792H29.6796V64H29.602V58.6792H28.1132C26.999 59.6309 25.7341 60.4113 24.3592 60.9797V64H24.2816V61.0115C22.6625 61.6693 20.8929 62.0338 19.0388 62.0388V64H18.9612V62.0388C17.1071 62.0338 15.3375 61.6693 13.7184 61.0115V64H13.6408V60.9797C12.2659 60.4113 11.001 59.6309 9.88678 58.6792H8.39804V64H8.32037V58.6792H3V58.6016H8.32037V57.1128C7.36877 55.9986 6.58847 54.7337 6.02023 53.3589H3V53.2812H5.9884C5.3306 51.6622 4.96621 49.8927 4.96122 48.0386H3V47.9609H4.96122C4.96627 46.1069 5.33073 44.3373 5.9886 42.7183H3V42.6406H6.02044C6.58866 41.266 7.36889 40.0013 8.32037 38.8873V37.398H3V37.3203H8.32037V32H8.39804V37.3203H9.88736C11.0014 36.3688 12.2661 35.5886 13.6408 35.0204V32H13.7184V34.9885C15.3375 34.3307 17.1071 33.9663 18.9612 33.9612V32ZM18.9612 34.0389C17.1062 34.044 15.3364 34.4107 13.7184 35.0724V37.3203H18.9612V34.0389ZM13.6408 35.1045C12.3137 35.6566 11.0902 36.4076 10.0074 37.3203H13.6408V35.1045ZM9.79719 37.398H8.39804V38.7971C8.8311 38.2987 9.29872 37.831 9.79719 37.398ZM8.39804 38.916C8.86452 38.3721 9.37213 37.8645 9.91606 37.398H13.6408V42.6406H8.39804V38.916ZM8.32037 39.0073C7.4077 40.0901 6.65669 41.3136 6.10454 42.6406H8.32037V39.0073ZM6.0725 42.7183C5.41078 44.3362 5.04397 46.106 5.03889 47.9609H8.32037V42.7183H6.0725ZM5.03889 48.0386C5.04391 49.8935 5.41065 51.6633 6.0723 53.2812H8.32037V48.0386H5.03889ZM6.10434 53.3589C6.6565 54.6861 7.40759 55.9098 8.32037 56.9927V53.3589H6.10434ZM8.39804 57.2029V58.6016H9.79662C9.29837 58.1686 8.83093 57.7012 8.39804 57.2029ZM9.91548 58.6016C9.37178 58.1352 8.86436 57.6278 8.39804 57.0841V53.3589H13.6408V58.6016H9.91548ZM10.0068 58.6792C11.0898 59.5921 12.3135 60.3433 13.6408 60.8955V58.6792H10.0068ZM13.7184 60.9276C15.3364 61.5893 17.1062 61.9561 18.9612 61.9611V58.6792H13.7184V60.9276ZM19.0388 61.9611C20.8937 61.9561 22.6636 61.5893 24.2816 60.9276V58.6792H19.0388V61.9611ZM24.3592 60.8955C25.6865 60.3433 26.9102 59.5921 27.9932 58.6792H24.3592V60.8955ZM28.2034 58.6016H29.602V57.2029C29.1691 57.7012 28.7016 58.1686 28.2034 58.6016ZM29.602 57.0841C29.1356 57.6278 28.6282 58.1352 28.0845 58.6016H24.3592V53.3589H29.602V57.0841ZM29.6796 56.9927C30.5924 55.9098 31.3435 54.6861 31.8957 53.3589H29.6796V56.9927ZM31.9277 53.2812C32.5894 51.6633 32.9561 49.8935 32.9611 48.0386H29.6796V53.2812H31.9277ZM32.9611 47.9609C32.956 46.1061 32.5892 44.3362 31.9275 42.7183H29.6796V47.9609H32.9611ZM31.8955 42.6406C31.3433 41.3136 30.5923 40.0901 29.6796 39.0073V42.6406H31.8955ZM29.602 38.7971V37.398H28.2028C28.7013 37.831 29.1689 38.2987 29.602 38.7971ZM28.0839 37.398C28.6279 37.8645 29.1355 38.3721 29.602 38.916V42.6406H24.3592V37.398H28.0839ZM27.9926 37.3203C26.9098 36.4076 25.6863 35.6566 24.3592 35.1045V37.3203H27.9926ZM24.2816 35.0724C22.6636 34.4107 20.8937 34.044 19.0388 34.0389V37.3203H24.2816V35.0724ZM13.7184 37.398H18.9612V42.6406H13.7184V37.398ZM24.2816 37.398H19.0388V42.6406H24.2816V37.398ZM13.6408 53.2812H8.39804V48.0386H13.6408V53.2812ZM13.7184 53.3589V58.6016H18.9612V53.3589H13.7184ZM18.9612 53.2812H13.7184V48.0386H18.9612V53.2812ZM19.0388 53.3589V58.6016H24.2816V53.3589H19.0388ZM24.2816 53.2812H19.0388V48.0386H24.2816V53.2812ZM29.602 53.2812H24.3592V48.0386H29.602V53.2812ZM13.7184 42.7183H18.9612V47.9609H13.7184V42.7183ZM8.39804 42.7183L13.6408 42.7183V47.9609H8.39804V42.7183ZM24.2816 42.7183H19.0388V47.9609H24.2816V42.7183ZM24.3592 47.9609V42.7183L29.602 42.7183V47.9609H24.3592Z" fill="#0A0D12"/>
</g>
<g filter="url(#filter1_dd_1_4928)">
<rect x="11" y="40" width="16" height="16" rx="8" fill="url(#paint1_linear_1_4928)"/>
<rect x="11" y="40" width="16" height="16" rx="8" fill="url(#paint2_radial_1_4928)" fill-opacity="0.08"/>
<rect x="11" y="40" width="16" height="16" rx="8" fill="url(#paint3_radial_1_4928)" fill-opacity="0.18"/>
<rect x="11" y="40" width="16" height="16" rx="8" fill="url(#paint4_radial_1_4928)" fill-opacity="0.05"/>
<path d="M23.8 44.0414C23.8 45.3898 21.651 44.5297 19 44.5297C16.349 44.5297 14.2 45.3898 14.2 44.0414C14.2 42.693 16.349 41.6 19 41.6C21.651 41.6 23.8 42.693 23.8 44.0414Z" fill="url(#paint5_linear_1_4928)" fill-opacity="0.4"/>
</g>
<g filter="url(#filter2_b_1_4928)">
<path d="M3 48H35V51.2C35 55.6804 35 57.9206 34.1281 59.6319C33.3611 61.1372 32.1372 62.3611 30.6319 63.1281C28.9206 64 26.6804 64 22.2 64H15.8C11.3196 64 9.07937 64 7.36808 63.1281C5.86278 62.3611 4.63893 61.1372 3.87195 59.6319C3 57.9206 3 55.6804 3 51.2V48Z" fill="white" fill-opacity="0.2"/>
</g>
</g>
<path d="M3.1 44.8C3.1 42.5581 3.10008 40.8828 3.20866 39.5538C3.31715 38.2259 3.53345 37.2527 3.96105 36.4135C4.71845 34.927 5.92699 33.7184 7.41348 32.961C8.25268 32.5335 9.22593 32.3171 10.5538 32.2087C11.8828 32.1001 13.5581 32.1 15.8 32.1H22.2C24.4419 32.1 26.1172 32.1001 27.4462 32.2087C28.7741 32.3171 29.7473 32.5335 30.5865 32.961C32.073 33.7184 33.2816 34.927 34.039 36.4135C34.4665 37.2527 34.6828 38.2259 34.7913 39.5538C34.8999 40.8828 34.9 42.5581 34.9 44.8V51.2C34.9 53.4419 34.8999 55.1172 34.7913 56.4462C34.6828 57.7741 34.4665 58.7473 34.039 59.5865C33.2816 61.073 32.073 62.2816 30.5865 63.039C29.7473 63.4665 28.7741 63.6828 27.4462 63.7913C26.1172 63.8999 24.4419 63.9 22.2 63.9H15.8C13.5581 63.9 11.8828 63.8999 10.5538 63.7913C9.22593 63.6828 8.25268 63.4665 7.41348 63.039C5.92699 62.2816 4.71845 61.073 3.96105 59.5865C3.53345 58.7473 3.31715 57.7741 3.20866 56.4462C3.10008 55.1172 3.1 53.4419 3.1 51.2V44.8Z" stroke="#0A0D12" stroke-opacity="0.12" stroke-width="0.2"/>
</g>
<path d="M78.9101 42.2372C79.2321 42.5355 79.6179 42.6846 80.0678 42.6846C80.5176 42.6846 80.9011 42.5355 81.2183 42.2372C81.5403 41.9341 81.7013 41.5719 81.7013 41.1505C81.7013 40.7339 81.5403 40.3764 81.2183 40.0781C80.9011 39.7751 80.5176 39.6235 80.0678 39.6235C79.6179 39.6235 79.2321 39.7751 78.9101 40.0781C78.5928 40.3764 78.4342 40.7339 78.4342 41.1505C78.4342 41.5719 78.5928 41.9341 78.9101 42.2372Z" fill="white"/>
<path d="M56.2997 52.6846C56.8063 51.8892 57.0597 50.9611 57.0597 49.9005V40.4545H53.9844V49.6377C53.9844 50.1917 53.8613 50.6841 53.6151 51.115C53.3736 51.5459 53.0303 51.8844 52.5852 52.1306C52.1449 52.3769 51.6264 52.5 51.0298 52.5C50.438 52.5 49.9195 52.3769 49.4744 52.1306C49.0294 51.8844 48.6837 51.5459 48.4375 51.115C48.196 50.6841 48.0753 50.1917 48.0753 49.6377V40.4545H45V49.9005C45 50.9611 45.2509 51.8892 45.7528 52.6846C46.2547 53.4801 46.9579 54.1003 47.8622 54.5454C48.7666 54.9858 49.8224 55.2059 51.0298 55.2059C52.2325 55.2059 53.286 54.9858 54.1903 54.5454C55.0947 54.1003 55.7978 53.4801 56.2997 52.6846Z" fill="white"/>
<path d="M63.3589 44.5099C62.7907 44.8792 62.3859 45.3811 62.1444 46.0156H62.0165V44.0909H59.133V55H62.1586V48.6931C62.1633 48.2244 62.2509 47.8243 62.4214 47.4929C62.5966 47.1567 62.838 46.901 63.1458 46.7258C63.4583 46.5506 63.8182 46.463 64.2254 46.463C64.8314 46.463 65.3073 46.6524 65.6529 47.0312C65.9986 47.4053 66.169 47.9261 66.1643 48.5937V55H69.1898V48.0539C69.1898 47.2064 69.0336 46.4772 68.7211 45.8664C68.4086 45.2509 67.9706 44.7774 67.4072 44.446C66.8437 44.1145 66.1832 43.9488 65.4256 43.9488C64.616 43.9488 63.9271 44.1358 63.3589 44.5099Z" fill="white"/>
<path d="M72.3463 53.821C72.0433 53.3522 71.8941 52.7604 71.8989 52.0454V46.3636H70.4074V44.0909H71.8989V41.4772H74.9244V44.0909H76.977V46.3636H74.9244V51.6477C74.9244 51.927 74.967 52.1448 75.0523 52.3011C75.1375 52.4526 75.2559 52.5591 75.4074 52.6207C75.5636 52.6822 75.7436 52.713 75.9472 52.713C76.0892 52.713 76.2313 52.7012 76.3733 52.6775C76.5153 52.6491 76.6242 52.6278 76.7 52.6136L77.1759 54.865C77.0243 54.9124 76.8113 54.9668 76.5366 55.0284C76.262 55.0947 75.9282 55.1349 75.5352 55.1491C74.8061 55.1775 74.1669 55.0804 73.6176 54.8579C73.0731 54.6354 72.6493 54.2897 72.3463 53.821Z" fill="white"/>
<path d="M84.769 53.821C84.4659 53.3522 84.3168 52.7604 84.3215 52.0454V46.3636H82.83V44.0909H84.3215V41.4772H87.3471V44.0909H89.3996V46.3636H87.3471V51.6477C87.3471 51.927 87.3897 52.1448 87.4749 52.3011C87.5602 52.4526 87.6785 52.5591 87.83 52.6207C87.9863 52.6822 88.1662 52.713 88.3698 52.713C88.5119 52.713 88.6539 52.7012 88.796 52.6775C88.938 52.6491 89.0469 52.6278 89.1227 52.6136L89.5985 54.865C89.447 54.9124 89.2339 54.9668 88.9593 55.0284C88.6847 55.0947 88.3509 55.1349 87.9579 55.1491C87.2287 55.1775 86.5895 55.0804 86.0403 54.8579C85.4958 54.6354 85.072 54.2897 84.769 53.821Z" fill="white"/>
<path fill-rule="evenodd" clip-rule="evenodd" d="M101.226 55.213C100.104 55.213 99.1376 54.9858 98.328 54.5312C97.5231 54.0719 96.9028 53.4233 96.4672 52.5852C96.0316 51.7424 95.8138 50.7457 95.8138 49.5951C95.8138 48.473 96.0316 47.4881 96.4672 46.6406C96.9028 45.793 97.516 45.1325 98.3067 44.659C99.1021 44.1856 100.035 43.9488 101.105 43.9488C101.825 43.9488 102.495 44.0648 103.115 44.2968C103.74 44.5241 104.284 44.8674 104.748 45.3267C105.217 45.7859 105.582 46.3636 105.842 47.0596C106.103 47.7509 106.233 48.5606 106.233 49.4886V50.3196H98.8038V50.3267C98.8038 50.8664 98.9033 51.3328 99.1021 51.7258C99.3057 52.1188 99.5922 52.4218 99.9615 52.6349C100.331 52.848 100.769 52.9545 101.275 52.9545C101.612 52.9545 101.919 52.9072 102.199 52.8125C102.478 52.7178 102.717 52.5757 102.916 52.3863C103.115 52.1969 103.266 51.9649 103.371 51.6903L106.169 51.875C106.027 52.5473 105.736 53.1344 105.295 53.6363C104.86 54.1335 104.296 54.5217 103.605 54.8011C102.918 55.0757 102.125 55.213 101.226 55.213ZM99.1092 47.3721C98.9258 47.6953 98.8249 48.0528 98.8067 48.4446H103.385C103.385 48.009 103.29 47.6231 103.101 47.2869C102.911 46.9507 102.649 46.6879 102.312 46.4985C101.981 46.3044 101.595 46.2073 101.155 46.2073C100.695 46.2073 100.288 46.3139 99.9331 46.5269C99.5827 46.7353 99.3081 47.017 99.1092 47.3721Z" fill="white"/>
<path fill-rule="evenodd" clip-rule="evenodd" d="M109.576 54.5383C110.248 54.9644 110.999 55.1775 111.827 55.1775C112.414 55.1775 112.911 55.0804 113.319 54.8863C113.731 54.6922 114.064 54.4483 114.32 54.1548C114.58 53.8565 114.782 53.5558 114.924 53.2528H115.052V55H118.035V40.4545H115.016V45.9233H114.924C114.791 45.6297 114.597 45.3314 114.341 45.0284C114.09 44.7206 113.759 44.4649 113.347 44.2613C112.94 44.053 112.431 43.9488 111.82 43.9488C111.02 43.9488 110.284 44.1572 109.611 44.5738C108.944 44.9858 108.409 45.6084 108.006 46.4417C107.604 47.2703 107.402 48.3096 107.402 49.5596C107.402 50.7765 107.597 51.8039 107.985 52.642C108.378 53.4753 108.908 54.1074 109.576 54.5383ZM114.022 52.3721C113.686 52.6373 113.274 52.7698 112.786 52.7698C112.289 52.7698 111.87 52.6349 111.529 52.365C111.193 52.0904 110.935 51.7116 110.755 51.2286C110.58 50.741 110.492 50.1799 110.492 49.5454C110.492 48.9157 110.58 48.3617 110.755 47.8835C110.93 47.4053 111.188 47.0312 111.529 46.7613C111.87 46.4914 112.289 46.3565 112.786 46.3565C113.274 46.3565 113.688 46.4867 114.029 46.7471C114.37 47.0075 114.63 47.3768 114.81 47.8551C114.99 48.3333 115.08 48.8967 115.08 49.5454C115.08 50.1941 114.988 50.7599 114.803 51.2429C114.623 51.7258 114.363 52.1022 114.022 52.3721Z" fill="white"/>
<path d="M133.023 51.115C133.269 50.6841 133.392 50.1917 133.392 49.6377V40.4545H136.467V49.9005C136.467 50.9611 136.214 51.8892 135.708 52.6846C135.206 53.4801 134.503 54.1003 133.598 54.5454C132.694 54.9858 131.64 55.2059 130.438 55.2059C129.23 55.2059 128.174 54.9858 127.27 54.5454C126.366 54.1003 125.663 53.4801 125.161 52.6846C124.659 51.8892 124.408 50.9611 124.408 49.9005V40.4545H127.483V49.6377C127.483 50.1917 127.604 50.6841 127.845 51.115C128.092 51.5459 128.437 51.8844 128.882 52.1306C129.327 52.3769 129.846 52.5 130.438 52.5C131.034 52.5 131.553 52.3769 131.993 52.1306C132.438 51.8844 132.781 51.5459 133.023 51.115Z" fill="white"/>
<path d="M78.5479 44.0909V55H81.5734V44.0909H78.5479Z" fill="white"/>
<path d="M94.2305 55V40.4545H91.2049V55H94.2305Z" fill="white"/>
<path d="M141.673 55V40.4545H138.598V55H141.673Z" fill="white"/>
<path d="M930 48.1818C930 47.5606 930.152 46.9943 930.455 46.483C930.758 45.9716 931.165 45.5644 931.676 45.2614C932.188 44.9583 932.754 44.8068 933.375 44.8068C933.913 44.8068 934.409 44.9223 934.864 45.1534C935.322 45.3845 935.701 45.7008 936 46.1023C936.299 46.5 936.485 46.9508 936.557 47.4545H935.182C935.106 47.0644 934.896 46.7462 934.551 46.5C934.206 46.25 933.814 46.125 933.375 46.125C932.996 46.125 932.652 46.2178 932.341 46.4034C932.03 46.589 931.782 46.8371 931.597 47.1477C931.411 47.4583 931.318 47.803 931.318 48.1818C931.318 48.5606 931.411 48.9053 931.597 49.2159C931.782 49.5265 932.03 49.7746 932.341 49.9602C932.652 50.1458 932.996 50.2386 933.375 50.2386C933.814 50.2386 934.186 50.1155 934.489 49.8693C934.795 49.6193 934.989 49.2992 935.068 48.9091H936.443C936.371 49.4129 936.195 49.8655 935.915 50.267C935.634 50.6648 935.275 50.9792 934.835 51.2102C934.4 51.4413 933.913 51.5568 933.375 51.5568C932.754 51.5568 932.188 51.4053 931.676 51.1023C931.165 50.7992 930.758 50.392 930.455 49.8807C930.152 49.3693 930 48.803 930 48.1818ZM933.318 54.1818C932.492 54.1818 931.716 54.0265 930.989 53.7159C930.265 53.4053 929.627 52.9754 929.074 52.4261C928.525 51.8731 928.093 51.2348 927.778 50.5114C927.468 49.7879 927.314 49.0114 927.318 48.1818C927.322 47.3523 927.479 46.5758 927.79 45.8523C928.104 45.1288 928.536 44.4924 929.085 43.9432C929.634 43.3902 930.271 42.9583 930.994 42.6477C931.718 42.3371 932.492 42.1818 933.318 42.1818C934.148 42.1818 934.924 42.3371 935.648 42.6477C936.375 42.9583 937.011 43.3902 937.557 43.9432C938.106 44.4924 938.536 45.1288 938.847 45.8523C939.157 46.5758 939.314 47.3523 939.318 48.1818C939.322 49.0114 939.169 49.7879 938.858 50.5114C938.547 51.2348 938.117 51.8731 937.568 52.4261C937.019 52.9754 936.381 53.4053 935.653 53.7159C934.926 54.0265 934.148 54.1818 933.318 54.1818ZM933.318 52.8636C933.966 52.8636 934.574 52.7424 935.142 52.5C935.71 52.2576 936.208 51.9223 936.636 51.4943C937.064 51.0663 937.4 50.5701 937.642 50.0057C937.884 49.4375 938.004 48.8314 938 48.1875C937.996 47.5398 937.873 46.9318 937.631 46.3636C937.388 45.7955 937.053 45.2973 936.625 44.8693C936.197 44.4413 935.701 44.1061 935.136 43.8636C934.572 43.6212 933.966 43.5 933.318 43.5C932.674 43.5 932.07 43.6212 931.506 43.8636C930.941 44.1061 930.445 44.4432 930.017 44.875C929.589 45.303 929.252 45.8011 929.006 46.3693C928.763 46.9337 928.64 47.5398 928.636 48.1875C928.633 48.8277 928.752 49.4318 928.994 50C929.237 50.5644 929.572 51.0606 930 51.4886C930.432 51.9167 930.93 52.2538 931.494 52.5C932.063 52.7424 932.67 52.8636 933.318 52.8636ZM946.345 54V52.9773L950.186 48.7727C950.637 48.2803 951.008 47.8523 951.3 47.4886C951.591 47.1212 951.807 46.7765 951.947 46.4545C952.091 46.1288 952.163 45.7879 952.163 45.4318C952.163 45.0227 952.065 44.6686 951.868 44.3693C951.675 44.0701 951.41 43.839 951.072 43.6761C950.735 43.5133 950.357 43.4318 949.936 43.4318C949.489 43.4318 949.099 43.5246 948.766 43.7102C948.436 43.892 948.18 44.1477 947.999 44.4773C947.821 44.8068 947.732 45.1932 947.732 45.6364H946.391C946.391 44.9545 946.548 44.3561 946.862 43.8409C947.177 43.3258 947.605 42.9242 948.146 42.6364C948.692 42.3485 949.304 42.2045 949.982 42.2045C950.663 42.2045 951.268 42.3485 951.794 42.6364C952.321 42.9242 952.733 43.3125 953.033 43.8011C953.332 44.2898 953.482 44.8333 953.482 45.4318C953.482 45.8598 953.404 46.2784 953.249 46.6875C953.097 47.0928 952.832 47.5455 952.453 48.0455C952.078 48.5417 951.557 49.1477 950.891 49.8636L948.277 52.6591V52.75H953.686V54H946.345ZM959.828 54.1591C958.972 54.1591 958.243 53.9261 957.641 53.4602C957.038 52.9905 956.578 52.3106 956.26 51.4205C955.942 50.5265 955.783 49.447 955.783 48.1818C955.783 46.9242 955.942 45.8504 956.26 44.9602C956.582 44.0663 957.044 43.3845 957.646 42.9148C958.252 42.4413 958.98 42.2045 959.828 42.2045C960.677 42.2045 961.402 42.4413 962.004 42.9148C962.61 43.3845 963.072 44.0663 963.391 44.9602C963.713 45.8504 963.874 46.9242 963.874 48.1818C963.874 49.447 963.714 50.5265 963.396 51.4205C963.078 52.3106 962.618 52.9905 962.016 53.4602C961.413 53.9261 960.684 54.1591 959.828 54.1591ZM959.828 52.9091C960.677 52.9091 961.336 52.5 961.805 51.6818C962.275 50.8636 962.51 49.697 962.51 48.1818C962.51 47.1742 962.402 46.3163 962.186 45.608C961.974 44.8996 961.667 44.3598 961.266 43.9886C960.868 43.6174 960.389 43.4318 959.828 43.4318C958.987 43.4318 958.33 43.8466 957.857 44.6761C957.383 45.5019 957.146 46.6705 957.146 48.1818C957.146 49.1894 957.252 50.0455 957.464 50.75C957.677 51.4545 957.982 51.9905 958.379 52.358C958.781 52.7254 959.264 52.9091 959.828 52.9091ZM966.084 54L971.288 43.7045V43.6136H965.288V42.3636H972.743V43.6818L967.561 54H966.084ZM975.537 54L980.741 43.7045V43.6136H974.741V42.3636H982.196V43.6818L977.014 54H975.537ZM996.655 42.3636H998.064V50.0682C998.064 50.8636 997.876 51.5739 997.501 52.1989C997.13 52.8201 996.606 53.3106 995.928 53.6705C995.25 54.0265 994.454 54.2045 993.541 54.2045C992.628 54.2045 991.833 54.0265 991.155 53.6705C990.477 53.3106 989.95 52.8201 989.575 52.1989C989.204 51.5739 989.018 50.8636 989.018 50.0682V42.3636H990.428V49.9545C990.428 50.5227 990.553 51.0284 990.803 51.4716C991.053 51.911 991.409 52.2576 991.871 52.5114C992.337 52.7614 992.893 52.8864 993.541 52.8864C994.189 52.8864 994.746 52.7614 995.212 52.5114C995.678 52.2576 996.034 51.911 996.28 51.4716C996.53 51.0284 996.655 50.5227 996.655 49.9545V42.3636ZM1002.04 48.75V54H1000.7V45.2727H1001.99V46.6364H1002.11C1002.31 46.1932 1002.62 45.8371 1003.04 45.5682C1003.45 45.2955 1003.99 45.1591 1004.65 45.1591C1005.24 45.1591 1005.76 45.2803 1006.2 45.5227C1006.64 45.7614 1006.99 46.125 1007.24 46.6136C1007.48 47.0985 1007.61 47.7121 1007.61 48.4545V54H1006.26V48.5455C1006.26 47.8598 1006.09 47.3258 1005.73 46.9432C1005.37 46.5568 1004.89 46.3636 1004.26 46.3636C1003.84 46.3636 1003.45 46.4564 1003.12 46.642C1002.78 46.8277 1002.52 47.0985 1002.33 47.4545C1002.13 47.8106 1002.04 48.2424 1002.04 48.75ZM1013.85 45.2727V46.4091H1009.33V45.2727H1013.85ZM1010.65 43.1818H1011.99V51.5C1011.99 51.8788 1012.04 52.1629 1012.15 52.3523C1012.27 52.5379 1012.41 52.6629 1012.58 52.7273C1012.76 52.7879 1012.95 52.8182 1013.15 52.8182C1013.29 52.8182 1013.42 52.8106 1013.51 52.7955C1013.6 52.7765 1013.68 52.7614 1013.74 52.75L1014.01 53.9545C1013.92 53.9886 1013.79 54.0227 1013.63 54.0568C1013.47 54.0947 1013.26 54.1136 1013.01 54.1136C1012.63 54.1136 1012.26 54.0322 1011.9 53.8693C1011.54 53.7064 1011.24 53.4583 1011 53.125C1010.76 52.7917 1010.65 52.3712 1010.65 51.8636V43.1818ZM1015.87 54V45.2727H1017.21V54H1015.87ZM1016.55 43.8182C1016.29 43.8182 1016.06 43.7292 1015.87 43.5511C1015.69 43.3731 1015.6 43.1591 1015.6 42.9091C1015.6 42.6591 1015.69 42.4451 1015.87 42.267C1016.06 42.089 1016.29 42 1016.55 42C1016.81 42 1017.03 42.089 1017.22 42.267C1017.41 42.4451 1017.5 42.6591 1017.5 42.9091C1017.5 43.1591 1017.41 43.3731 1017.22 43.5511C1017.03 43.7292 1016.81 43.8182 1016.55 43.8182ZM1023.46 45.2727V46.4091H1018.94V45.2727H1023.46ZM1020.26 43.1818H1021.6V51.5C1021.6 51.8788 1021.65 52.1629 1021.76 52.3523C1021.88 52.5379 1022.02 52.6629 1022.19 52.7273C1022.37 52.7879 1022.56 52.8182 1022.76 52.8182C1022.9 52.8182 1023.02 52.8106 1023.12 52.7955C1023.21 52.7765 1023.29 52.7614 1023.35 52.75L1023.62 53.9545C1023.53 53.9886 1023.4 54.0227 1023.24 54.0568C1023.08 54.0947 1022.87 54.1136 1022.62 54.1136C1022.24 54.1136 1021.87 54.0322 1021.51 53.8693C1021.15 53.7064 1020.85 53.4583 1020.61 53.125C1020.37 52.7917 1020.26 52.3712 1020.26 51.8636V43.1818ZM1027.01 42.3636V54H1025.66V42.3636H1027.01ZM1033.12 54.1818C1032.28 54.1818 1031.55 53.9962 1030.94 53.625C1030.34 53.25 1029.87 52.7273 1029.54 52.0568C1029.22 51.3826 1029.05 50.5985 1029.05 49.7045C1029.05 48.8106 1029.22 48.0227 1029.54 47.3409C1029.87 46.6553 1030.33 46.1212 1030.92 45.7386C1031.51 45.3523 1032.2 45.1591 1032.98 45.1591C1033.44 45.1591 1033.89 45.2348 1034.33 45.3864C1034.77 45.5379 1035.18 45.7841 1035.54 46.125C1035.9 46.4621 1036.19 46.9091 1036.41 47.4659C1036.63 48.0227 1036.73 48.7083 1036.73 49.5227V50.0909H1030.01V48.9318H1035.37C1035.37 48.4394 1035.27 48 1035.08 47.6136C1034.88 47.2273 1034.61 46.9223 1034.25 46.6989C1033.89 46.4754 1033.47 46.3636 1032.98 46.3636C1032.45 46.3636 1031.99 46.4962 1031.6 46.7614C1031.21 47.0227 1030.91 47.3636 1030.71 47.7841C1030.5 48.2045 1030.39 48.6553 1030.39 49.1364V49.9091C1030.39 50.5682 1030.51 51.1269 1030.73 51.5852C1030.97 52.0398 1031.29 52.3864 1031.69 52.625C1032.1 52.8598 1032.58 52.9773 1033.12 52.9773C1033.47 52.9773 1033.79 52.928 1034.08 52.8295C1034.36 52.7273 1034.61 52.5758 1034.82 52.375C1035.03 52.1705 1035.19 51.9167 1035.3 51.6136L1036.6 51.9773C1036.46 52.4167 1036.23 52.803 1035.91 53.1364C1035.59 53.4659 1035.19 53.7235 1034.72 53.9091C1034.24 54.0909 1033.71 54.1818 1033.12 54.1818ZM1042.07 54.1818C1041.34 54.1818 1040.7 53.9981 1040.14 53.6307C1039.59 53.2595 1039.15 52.7367 1038.84 52.0625C1038.52 51.3845 1038.37 50.5833 1038.37 49.6591C1038.37 48.7424 1038.52 47.947 1038.84 47.2727C1039.15 46.5985 1039.59 46.0777 1040.15 45.7102C1040.71 45.3428 1041.36 45.1591 1042.09 45.1591C1042.66 45.1591 1043.11 45.2538 1043.44 45.4432C1043.77 45.6288 1044.03 45.8409 1044.2 46.0795C1044.38 46.3144 1044.52 46.5076 1044.62 46.6591H1044.73V42.3636H1046.07V54H1044.77V52.6591H1044.62C1044.52 52.8182 1044.38 53.0189 1044.19 53.2614C1044.01 53.5 1043.75 53.714 1043.42 53.9034C1043.08 54.089 1042.63 54.1818 1042.07 54.1818ZM1042.25 52.9773C1042.79 52.9773 1043.24 52.8371 1043.62 52.5568C1043.99 52.2727 1044.27 51.8807 1044.46 51.3807C1044.65 50.8769 1044.75 50.2955 1044.75 49.6364C1044.75 48.9848 1044.66 48.4148 1044.47 47.9261C1044.28 47.4337 1044 47.0511 1043.63 46.7784C1043.26 46.5019 1042.8 46.3636 1042.25 46.3636C1041.68 46.3636 1041.21 46.5095 1040.83 46.8011C1040.46 47.089 1040.17 47.4811 1039.98 47.9773C1039.8 48.4697 1039.71 49.0227 1039.71 49.6364C1039.71 50.2576 1039.8 50.822 1039.99 51.3295C1040.18 51.8333 1040.47 52.2348 1040.84 52.5341C1041.22 52.8295 1041.69 52.9773 1042.25 52.9773ZM1061.03 42.3636H1062.44V50.0682C1062.44 50.8636 1062.25 51.5739 1061.88 52.1989C1061.51 52.8201 1060.98 53.3106 1060.3 53.6705C1059.62 54.0265 1058.83 54.2045 1057.92 54.2045C1057 54.2045 1056.21 54.0265 1055.53 53.6705C1054.85 53.3106 1054.33 52.8201 1053.95 52.1989C1053.58 51.5739 1053.39 50.8636 1053.39 50.0682V42.3636H1054.8V49.9545C1054.8 50.5227 1054.93 51.0284 1055.18 51.4716C1055.43 51.911 1055.78 52.2576 1056.25 52.5114C1056.71 52.7614 1057.27 52.8864 1057.92 52.8864C1058.56 52.8864 1059.12 52.7614 1059.59 52.5114C1060.05 52.2576 1060.41 51.911 1060.65 51.4716C1060.9 51.0284 1061.03 50.5227 1061.03 49.9545V42.3636ZM1066.66 42.3636V54H1065.25V42.3636H1066.66ZM1070.28 54.0909C1070 54.0909 1069.76 53.9905 1069.56 53.7898C1069.36 53.589 1069.26 53.3485 1069.26 53.0682C1069.26 52.7879 1069.36 52.5473 1069.56 52.3466C1069.76 52.1458 1070 52.0455 1070.28 52.0455C1070.56 52.0455 1070.8 52.1458 1071 52.3466C1071.21 52.5473 1071.31 52.7879 1071.31 53.0682C1071.31 53.2538 1071.26 53.4242 1071.16 53.5795C1071.07 53.7348 1070.95 53.8598 1070.79 53.9545C1070.64 54.0455 1070.47 54.0909 1070.28 54.0909ZM1078.87 54H1077.39L1081.67 42.3636H1083.12L1087.39 54H1085.92L1082.44 44.2045H1082.35L1078.87 54ZM1079.42 49.4545H1085.37V50.7045H1079.42V49.4545ZM1090.37 42.3636V54H1089.02V42.3636H1090.37ZM1094.16 42.3636V54H1092.82V42.3636H1094.16ZM1101.12 54V45.2727H1102.41V46.5909H1102.5C1102.66 46.1591 1102.95 45.8087 1103.37 45.5398C1103.78 45.2708 1104.25 45.1364 1104.78 45.1364C1104.88 45.1364 1105 45.1383 1105.15 45.142C1105.29 45.1458 1105.41 45.1515 1105.48 45.1591V46.5227C1105.44 46.5114 1105.33 46.4943 1105.17 46.4716C1105.01 46.4451 1104.84 46.4318 1104.66 46.4318C1104.24 46.4318 1103.86 46.5208 1103.53 46.6989C1103.2 46.8731 1102.94 47.1155 1102.74 47.4261C1102.55 47.733 1102.46 48.0833 1102.46 48.4773V54H1101.12ZM1107.07 54V45.2727H1108.41V54H1107.07ZM1107.75 43.8182C1107.49 43.8182 1107.27 43.7292 1107.08 43.5511C1106.89 43.3731 1106.8 43.1591 1106.8 42.9091C1106.8 42.6591 1106.89 42.4451 1107.08 42.267C1107.27 42.089 1107.49 42 1107.75 42C1108.01 42 1108.24 42.089 1108.42 42.267C1108.61 42.4451 1108.71 42.6591 1108.71 42.9091C1108.71 43.1591 1108.61 43.3731 1108.42 43.5511C1108.24 43.7292 1108.01 43.8182 1107.75 43.8182ZM1114.39 57.4545C1113.74 57.4545 1113.19 57.3712 1112.72 57.2045C1112.25 57.0417 1111.87 56.8258 1111.56 56.5568C1111.25 56.2917 1111 56.0076 1110.82 55.7045L1111.89 54.9545C1112.01 55.1136 1112.17 55.2955 1112.35 55.5C1112.54 55.7083 1112.79 55.8883 1113.11 56.0398C1113.44 56.1951 1113.86 56.2727 1114.39 56.2727C1115.1 56.2727 1115.68 56.1023 1116.13 55.7614C1116.59 55.4205 1116.82 54.8864 1116.82 54.1591V52.3864H1116.71C1116.61 52.5455 1116.47 52.7424 1116.29 52.9773C1116.11 53.2083 1115.85 53.4148 1115.52 53.5966C1115.18 53.7746 1114.73 53.8636 1114.16 53.8636C1113.46 53.8636 1112.83 53.697 1112.27 53.3636C1111.71 53.0303 1111.27 52.5455 1110.94 51.9091C1110.62 51.2727 1110.46 50.5 1110.46 49.5909C1110.46 48.697 1110.62 47.9186 1110.93 47.2557C1111.24 46.589 1111.68 46.0739 1112.24 45.7102C1112.8 45.3428 1113.45 45.1591 1114.19 45.1591C1114.75 45.1591 1115.21 45.2538 1115.54 45.4432C1115.88 45.6288 1116.13 45.8409 1116.31 46.0795C1116.49 46.3144 1116.63 46.5076 1116.73 46.6591H1116.87V45.2727H1118.16V54.25C1118.16 55 1117.99 55.6098 1117.65 56.0795C1117.31 56.553 1116.86 56.8996 1116.29 57.1193C1115.72 57.3428 1115.09 57.4545 1114.39 57.4545ZM1114.35 52.6591C1114.88 52.6591 1115.34 52.536 1115.71 52.2898C1116.08 52.0436 1116.36 51.6894 1116.56 51.2273C1116.75 50.7652 1116.85 50.2121 1116.85 49.5682C1116.85 48.9394 1116.75 48.3845 1116.56 47.9034C1116.37 47.4223 1116.09 47.0455 1115.72 46.7727C1115.35 46.5 1114.89 46.3636 1114.35 46.3636C1113.78 46.3636 1113.3 46.5076 1112.92 46.7955C1112.55 47.0833 1112.27 47.4697 1112.08 47.9545C1111.89 48.4394 1111.8 48.9773 1111.8 49.5682C1111.8 50.1742 1111.89 50.7102 1112.08 51.1761C1112.28 51.6383 1112.56 52.0019 1112.94 52.267C1113.31 52.5284 1113.78 52.6591 1114.35 52.6591ZM1121.96 48.75V54H1120.62V42.3636H1121.96V46.6364H1122.07C1122.28 46.1856 1122.58 45.8277 1122.99 45.5625C1123.41 45.2936 1123.96 45.1591 1124.64 45.1591C1125.24 45.1591 1125.76 45.2784 1126.2 45.517C1126.65 45.7519 1127 46.1136 1127.24 46.6023C1127.49 47.0871 1127.62 47.7045 1127.62 48.4545V54H1126.28V48.5455C1126.28 47.8523 1126.1 47.3163 1125.74 46.9375C1125.38 46.5549 1124.89 46.3636 1124.25 46.3636C1123.81 46.3636 1123.42 46.4564 1123.07 46.642C1122.73 46.8277 1122.46 47.0985 1122.25 47.4545C1122.06 47.8106 1121.96 48.2424 1121.96 48.75ZM1133.87 45.2727V46.4091H1129.34V45.2727H1133.87ZM1130.66 43.1818H1132V51.5C1132 51.8788 1132.06 52.1629 1132.17 52.3523C1132.28 52.5379 1132.43 52.6629 1132.6 52.7273C1132.78 52.7879 1132.96 52.8182 1133.16 52.8182C1133.31 52.8182 1133.43 52.8106 1133.53 52.7955C1133.62 52.7765 1133.7 52.7614 1133.75 52.75L1134.03 53.9545C1133.93 53.9886 1133.81 54.0227 1133.64 54.0568C1133.48 54.0947 1133.28 54.1136 1133.03 54.1136C1132.65 54.1136 1132.28 54.0322 1131.91 53.8693C1131.55 53.7064 1131.25 53.4583 1131.01 53.125C1130.78 52.7917 1130.66 52.3712 1130.66 51.8636V43.1818ZM1141.91 47.2273L1140.7 47.5682C1140.63 47.3674 1140.52 47.1723 1140.37 46.983C1140.23 46.7898 1140.03 46.6307 1139.78 46.5057C1139.53 46.3807 1139.21 46.3182 1138.82 46.3182C1138.28 46.3182 1137.84 46.4413 1137.48 46.6875C1137.13 46.9299 1136.95 47.2386 1136.95 47.6136C1136.95 47.947 1137.08 48.2102 1137.32 48.4034C1137.56 48.5966 1137.94 48.7576 1138.45 48.8864L1139.75 49.2045C1140.53 49.3939 1141.11 49.6837 1141.49 50.0739C1141.88 50.4602 1142.07 50.9583 1142.07 51.5682C1142.07 52.0682 1141.92 52.5152 1141.64 52.9091C1141.35 53.303 1140.95 53.6136 1140.44 53.8409C1139.93 54.0682 1139.34 54.1818 1138.66 54.1818C1137.77 54.1818 1137.03 53.9886 1136.45 53.6023C1135.87 53.2159 1135.5 52.6515 1135.34 51.9091L1136.61 51.5909C1136.73 52.0606 1136.96 52.4129 1137.3 52.6477C1137.64 52.8826 1138.09 53 1138.64 53C1139.26 53 1139.76 52.8674 1140.12 52.6023C1140.5 52.3333 1140.68 52.0114 1140.68 51.6364C1140.68 51.3333 1140.58 51.0795 1140.36 50.875C1140.15 50.6667 1139.83 50.5114 1139.39 50.4091L1137.93 50.0682C1137.13 49.8788 1136.55 49.5852 1136.17 49.1875C1135.8 48.786 1135.61 48.2841 1135.61 47.6818C1135.61 47.1894 1135.75 46.7538 1136.03 46.375C1136.31 45.9962 1136.69 45.6989 1137.17 45.483C1137.66 45.267 1138.2 45.1591 1138.82 45.1591C1139.68 45.1591 1140.36 45.3485 1140.85 45.7273C1141.35 46.1061 1141.7 46.6061 1141.91 47.2273ZM1148.59 54V45.2727H1149.88V46.5909H1149.97C1150.13 46.1591 1150.42 45.8087 1150.84 45.5398C1151.25 45.2708 1151.72 45.1364 1152.25 45.1364C1152.34 45.1364 1152.47 45.1383 1152.62 45.142C1152.76 45.1458 1152.87 45.1515 1152.95 45.1591V46.5227C1152.9 46.5114 1152.8 46.4943 1152.64 46.4716C1152.48 46.4451 1152.31 46.4318 1152.13 46.4318C1151.71 46.4318 1151.33 46.5208 1151 46.6989C1150.67 46.8731 1150.4 47.1155 1150.21 47.4261C1150.02 47.733 1149.93 48.0833 1149.93 48.4773V54H1148.59ZM1157.93 54.1818C1157.09 54.1818 1156.37 53.9962 1155.76 53.625C1155.15 53.25 1154.68 52.7273 1154.35 52.0568C1154.03 51.3826 1153.87 50.5985 1153.87 49.7045C1153.87 48.8106 1154.03 48.0227 1154.35 47.3409C1154.68 46.6553 1155.14 46.1212 1155.73 45.7386C1156.32 45.3523 1157.01 45.1591 1157.8 45.1591C1158.25 45.1591 1158.7 45.2348 1159.14 45.3864C1159.59 45.5379 1159.99 45.7841 1160.35 46.125C1160.72 46.4621 1161.01 46.9091 1161.22 47.4659C1161.44 48.0227 1161.55 48.7083 1161.55 49.5227V50.0909H1154.82V48.9318H1160.18C1160.18 48.4394 1160.08 48 1159.89 47.6136C1159.69 47.2273 1159.42 46.9223 1159.06 46.6989C1158.7 46.4754 1158.28 46.3636 1157.8 46.3636C1157.26 46.3636 1156.8 46.4962 1156.41 46.7614C1156.02 47.0227 1155.73 47.3636 1155.52 47.7841C1155.31 48.2045 1155.21 48.6553 1155.21 49.1364V49.9091C1155.21 50.5682 1155.32 51.1269 1155.55 51.5852C1155.78 52.0398 1156.1 52.3864 1156.51 52.625C1156.92 52.8598 1157.39 52.9773 1157.93 52.9773C1158.29 52.9773 1158.6 52.928 1158.89 52.8295C1159.18 52.7273 1159.42 52.5758 1159.63 52.375C1159.84 52.1705 1160 51.9167 1160.12 51.6136L1161.41 51.9773C1161.27 52.4167 1161.04 52.803 1160.72 53.1364C1160.4 53.4659 1160 53.7235 1159.53 53.9091C1159.06 54.0909 1158.52 54.1818 1157.93 54.1818ZM1169.77 47.2273L1168.56 47.5682C1168.49 47.3674 1168.38 47.1723 1168.23 46.983C1168.08 46.7898 1167.89 46.6307 1167.64 46.5057C1167.39 46.3807 1167.07 46.3182 1166.68 46.3182C1166.14 46.3182 1165.7 46.4413 1165.34 46.6875C1164.99 46.9299 1164.81 47.2386 1164.81 47.6136C1164.81 47.947 1164.94 48.2102 1165.18 48.4034C1165.42 48.5966 1165.8 48.7576 1166.31 48.8864L1167.61 49.2045C1168.39 49.3939 1168.97 49.6837 1169.35 50.0739C1169.74 50.4602 1169.93 50.9583 1169.93 51.5682C1169.93 52.0682 1169.78 52.5152 1169.5 52.9091C1169.21 53.303 1168.81 53.6136 1168.3 53.8409C1167.79 54.0682 1167.2 54.1818 1166.52 54.1818C1165.63 54.1818 1164.89 53.9886 1164.31 53.6023C1163.72 53.2159 1163.36 52.6515 1163.2 51.9091L1164.47 51.5909C1164.59 52.0606 1164.82 52.4129 1165.16 52.6477C1165.5 52.8826 1165.95 53 1166.5 53C1167.12 53 1167.62 52.8674 1167.98 52.6023C1168.36 52.3333 1168.54 52.0114 1168.54 51.6364C1168.54 51.3333 1168.44 51.0795 1168.22 50.875C1168.01 50.6667 1167.69 50.5114 1167.25 50.4091L1165.79 50.0682C1164.99 49.8788 1164.4 49.5852 1164.03 49.1875C1163.66 48.786 1163.47 48.2841 1163.47 47.6818C1163.47 47.1894 1163.61 46.7538 1163.89 46.375C1164.17 45.9962 1164.55 45.6989 1165.03 45.483C1165.51 45.267 1166.06 45.1591 1166.68 45.1591C1167.54 45.1591 1168.22 45.3485 1168.71 45.7273C1169.21 46.1061 1169.56 46.6061 1169.77 47.2273ZM1175.61 54.1818C1174.76 54.1818 1174.04 53.9962 1173.43 53.625C1172.82 53.25 1172.36 52.7273 1172.03 52.0568C1171.7 51.3826 1171.54 50.5985 1171.54 49.7045C1171.54 48.8106 1171.7 48.0227 1172.03 47.3409C1172.36 46.6553 1172.81 46.1212 1173.4 45.7386C1173.99 45.3523 1174.68 45.1591 1175.47 45.1591C1175.92 45.1591 1176.37 45.2348 1176.82 45.3864C1177.26 45.5379 1177.66 45.7841 1178.03 46.125C1178.39 46.4621 1178.68 46.9091 1178.89 47.4659C1179.11 48.0227 1179.22 48.7083 1179.22 49.5227V50.0909H1172.49V48.9318H1177.86C1177.86 48.4394 1177.76 48 1177.56 47.6136C1177.37 47.2273 1177.09 46.9223 1176.73 46.6989C1176.37 46.4754 1175.95 46.3636 1175.47 46.3636C1174.93 46.3636 1174.47 46.4962 1174.08 46.7614C1173.7 47.0227 1173.4 47.3636 1173.19 47.7841C1172.98 48.2045 1172.88 48.6553 1172.88 49.1364V49.9091C1172.88 50.5682 1172.99 51.1269 1173.22 51.5852C1173.45 52.0398 1173.77 52.3864 1174.18 52.625C1174.59 52.8598 1175.06 52.9773 1175.61 52.9773C1175.96 52.9773 1176.28 52.928 1176.56 52.8295C1176.85 52.7273 1177.1 52.5758 1177.3 52.375C1177.51 52.1705 1177.67 51.9167 1177.79 51.6136L1179.08 51.9773C1178.95 52.4167 1178.72 52.803 1178.39 53.1364C1178.07 53.4659 1177.68 53.7235 1177.2 53.9091C1176.73 54.0909 1176.2 54.1818 1175.61 54.1818ZM1181.26 54V45.2727H1182.55V46.5909H1182.64C1182.8 46.1591 1183.09 45.8087 1183.51 45.5398C1183.93 45.2708 1184.39 45.1364 1184.92 45.1364C1185.02 45.1364 1185.14 45.1383 1185.29 45.142C1185.43 45.1458 1185.55 45.1515 1185.62 45.1591V46.5227C1185.58 46.5114 1185.47 46.4943 1185.31 46.4716C1185.15 46.4451 1184.98 46.4318 1184.8 46.4318C1184.38 46.4318 1184 46.5208 1183.67 46.6989C1183.34 46.8731 1183.08 47.1155 1182.88 47.4261C1182.69 47.733 1182.6 48.0833 1182.6 48.4773V54H1181.26ZM1194.61 45.2727L1191.39 54H1190.02L1186.8 45.2727H1188.25L1190.66 52.2273H1190.75L1193.16 45.2727H1194.61ZM1199.73 54.1818C1198.89 54.1818 1198.16 53.9962 1197.55 53.625C1196.95 53.25 1196.48 52.7273 1196.15 52.0568C1195.82 51.3826 1195.66 50.5985 1195.66 49.7045C1195.66 48.8106 1195.82 48.0227 1196.15 47.3409C1196.48 46.6553 1196.94 46.1212 1197.53 45.7386C1198.12 45.3523 1198.81 45.1591 1199.59 45.1591C1200.05 45.1591 1200.5 45.2348 1200.94 45.3864C1201.38 45.5379 1201.79 45.7841 1202.15 46.125C1202.51 46.4621 1202.8 46.9091 1203.02 47.4659C1203.24 48.0227 1203.34 48.7083 1203.34 49.5227V50.0909H1196.62V48.9318H1201.98C1201.98 48.4394 1201.88 48 1201.68 47.6136C1201.49 47.2273 1201.21 46.9223 1200.86 46.6989C1200.5 46.4754 1200.08 46.3636 1199.59 46.3636C1199.06 46.3636 1198.6 46.4962 1198.21 46.7614C1197.82 47.0227 1197.52 47.3636 1197.32 47.7841C1197.11 48.2045 1197 48.6553 1197 49.1364V49.9091C1197 50.5682 1197.12 51.1269 1197.34 51.5852C1197.57 52.0398 1197.89 52.3864 1198.3 52.625C1198.71 52.8598 1199.19 52.9773 1199.73 52.9773C1200.08 52.9773 1200.4 52.928 1200.68 52.8295C1200.97 52.7273 1201.22 52.5758 1201.43 52.375C1201.64 52.1705 1201.8 51.9167 1201.91 51.6136L1203.21 51.9773C1203.07 52.4167 1202.84 52.803 1202.52 53.1364C1202.2 53.4659 1201.8 53.7235 1201.33 53.9091C1200.85 54.0909 1200.32 54.1818 1199.73 54.1818ZM1208.68 54.1818C1207.95 54.1818 1207.31 53.9981 1206.75 53.6307C1206.2 53.2595 1205.76 52.7367 1205.45 52.0625C1205.13 51.3845 1204.97 50.5833 1204.97 49.6591C1204.97 48.7424 1205.13 47.947 1205.45 47.2727C1205.76 46.5985 1206.2 46.0777 1206.76 45.7102C1207.32 45.3428 1207.97 45.1591 1208.7 45.1591C1209.27 45.1591 1209.72 45.2538 1210.05 45.4432C1210.38 45.6288 1210.64 45.8409 1210.81 46.0795C1210.99 46.3144 1211.13 46.5076 1211.22 46.6591H1211.34V42.3636H1212.68V54H1211.38V52.6591H1211.22C1211.13 52.8182 1210.99 53.0189 1210.8 53.2614C1210.62 53.5 1210.36 53.714 1210.03 53.9034C1209.69 54.089 1209.24 54.1818 1208.68 54.1818ZM1208.86 52.9773C1209.4 52.9773 1209.85 52.8371 1210.22 52.5568C1210.6 52.2727 1210.88 51.8807 1211.07 51.3807C1211.26 50.8769 1211.36 50.2955 1211.36 49.6364C1211.36 48.9848 1211.27 48.4148 1211.08 47.9261C1210.89 47.4337 1210.61 47.0511 1210.24 46.7784C1209.86 46.5019 1209.41 46.3636 1208.86 46.3636C1208.29 46.3636 1207.82 46.5095 1207.44 46.8011C1207.07 47.089 1206.78 47.4811 1206.59 47.9773C1206.41 48.4697 1206.32 49.0227 1206.32 49.6364C1206.32 50.2576 1206.41 50.822 1206.6 51.3295C1206.79 51.8333 1207.08 52.2348 1207.45 52.5341C1207.83 52.8295 1208.3 52.9773 1208.86 52.9773ZM1216.3 54.0909C1216.02 54.0909 1215.78 53.9905 1215.58 53.7898C1215.38 53.589 1215.28 53.3485 1215.28 53.0682C1215.28 52.7879 1215.38 52.5473 1215.58 52.3466C1215.78 52.1458 1216.02 52.0455 1216.3 52.0455C1216.58 52.0455 1216.82 52.1458 1217.02 52.3466C1217.22 52.5473 1217.32 52.7879 1217.32 53.0682C1217.32 53.2538 1217.27 53.4242 1217.18 53.5795C1217.09 53.7348 1216.96 53.8598 1216.81 53.9545C1216.66 54.0455 1216.49 54.0909 1216.3 54.0909Z" fill="#D6BBFB"/>
<defs>
<filter id="filter0_dddi_1_4928" x="0" y="30" width="38" height="38" filterUnits="userSpaceOnUse" color-interpolation-filters="sRGB">
<feFlood flood-opacity="0" result="BackgroundImageFix"/>
<feColorMatrix in="SourceAlpha" type="matrix" values="0 0 0 0 0 0 0 0 0 0 0 0 0 0 0 0 0 0 127 0" result="hardAlpha"/>
<feOffset dy="1"/>
<feGaussianBlur stdDeviation="1"/>
<feColorMatrix type="matrix" values="0 0 0 0 0.0392157 0 0 0 0 0.0509804 0 0 0 0 0.0705882 0 0 0 0.06 0"/>
<feBlend mode="normal" in2="BackgroundImageFix" result="effect1_dropShadow_1_4928"/>
<feColorMatrix in="SourceAlpha" type="matrix" values="0 0 0 0 0 0 0 0 0 0 0 0 0 0 0 0 0 0 127 0" result="hardAlpha"/>
<feOffset dy="1"/>
<feGaussianBlur stdDeviation="1.5"/>
<feColorMatrix type="matrix" values="0 0 0 0 0.0392157 0 0 0 0 0.0509804 0 0 0 0 0.0705882 0 0 0 0.1 0"/>
<feBlend mode="normal" in2="effect1_dropShadow_1_4928" result="effect2_dropShadow_1_4928"/>
<feColorMatrix in="SourceAlpha" type="matrix" values="0 0 0 0 0 0 0 0 0 0 0 0 0 0 0 0 0 0 127 0" result="hardAlpha"/>
<feMorphology radius="0.5" operator="erode" in="SourceAlpha" result="effect3_dropShadow_1_4928"/>
<feOffset dy="1"/>
<feGaussianBlur stdDeviation="0.5"/>
<feComposite in2="hardAlpha" operator="out"/>
<feColorMatrix type="matrix" values="0 0 0 0 0.0392157 0 0 0 0 0.0509804 0 0 0 0 0.0705882 0 0 0 0.13 0"/>
<feBlend mode="normal" in2="effect2_dropShadow_1_4928" result="effect3_dropShadow_1_4928"/>
<feBlend mode="normal" in="SourceGraphic" in2="effect3_dropShadow_1_4928" result="shape"/>
<feColorMatrix in="SourceAlpha" type="matrix" values="0 0 0 0 0 0 0 0 0 0 0 0 0 0 0 0 0 0 127 0" result="hardAlpha"/>
<feOffset dy="-0.5"/>
<feGaussianBlur stdDeviation="0.25"/>
<feComposite in2="hardAlpha" operator="arithmetic" k2="-1" k3="1"/>
<feColorMatrix type="matrix" values="0 0 0 0 0.0392157 0 0 0 0 0.0509804 0 0 0 0 0.0705882 0 0 0 0.1 0"/>
<feBlend mode="normal" in2="shape" result="effect4_innerShadow_1_4928"/>
</filter>
<filter id="filter1_dd_1_4928" x="8" y="38" width="22" height="22" filterUnits="userSpaceOnUse" color-interpolation-filters="sRGB">
<feFlood flood-opacity="0" result="BackgroundImageFix"/>
<feColorMatrix in="SourceAlpha" type="matrix" values="0 0 0 0 0 0 0 0 0 0 0 0 0 0 0 0 0 0 127 0" result="hardAlpha"/>
<feOffset dy="1"/>
<feGaussianBlur stdDeviation="1"/>
<feColorMatrix type="matrix" values="0 0 0 0 0.0392157 0 0 0 0 0.0509804 0 0 0 0 0.0705882 0 0 0 0.06 0"/>
<feBlend mode="normal" in2="BackgroundImageFix" result="effect1_dropShadow_1_4928"/>
<feColorMatrix in="SourceAlpha" type="matrix" values="0 0 0 0 0 0 0 0 0 0 0 0 0 0 0 0 0 0 127 0" result="hardAlpha"/>
<feOffset dy="1"/>
<feGaussianBlur stdDeviation="1.5"/>
<feColorMatrix type="matrix" values="0 0 0 0 0.0392157 0 0 0 0 0.0509804 0 0 0 0 0.0705882 0 0 0 0.1 0"/>
<feBlend mode="normal" in2="effect1_dropShadow_1_4928" result="effect2_dropShadow_1_4928"/>
<feBlend mode="normal" in="SourceGraphic" in2="effect2_dropShadow_1_4928" result="shape"/>
</filter>
<filter id="filter2_b_1_4928" x="-2" y="43" width="42" height="26" filterUnits="userSpaceOnUse" color-interpolation-filters="sRGB">
<feFlood flood-opacity="0" result="BackgroundImageFix"/>
<feGaussianBlur in="BackgroundImageFix" stdDeviation="2.5"/>
<feComposite in2="SourceAlpha" operator="in" result="effect1_backgroundBlur_1_4928"/>
<feBlend mode="normal" in="SourceGraphic" in2="effect1_backgroundBlur_1_4928" result="shape"/>
</filter>
<linearGradient id="paint0_linear_1_4928" x1="19" y1="32" x2="19" y2="64" gradientUnits="userSpaceOnUse">
<stop stop-color="white"/>
<stop offset="1" stop-color="#0A0D12"/>
</linearGradient>
<linearGradient id="paint1_linear_1_4928" x1="15" y1="56" x2="23" y2="40" gradientUnits="userSpaceOnUse">
<stop stop-color="#53389E"/>
<stop offset="1" stop-color="#6941C6"/>
</linearGradient>
<radialGradient id="paint2_radial_1_4928" cx="0" cy="0" r="1" gradientUnits="userSpaceOnUse" gradientTransform="translate(19 40) rotate(90) scale(12)">
<stop stop-color="white" stop-opacity="0"/>
<stop offset="0.5" stop-color="white" stop-opacity="0"/>
<stop offset="0.99" stop-color="white"/>
<stop offset="1" stop-color="white" stop-opacity="0"/>
</radialGradient>
<radialGradient id="paint3_radial_1_4928" cx="0" cy="0" r="1" gradientUnits="userSpaceOnUse" gradientTransform="translate(19 48) rotate(90) scale(8)">
<stop offset="0.746599" stop-color="white" stop-opacity="0"/>
<stop offset="1" stop-color="white"/>
</radialGradient>
<radialGradient id="paint4_radial_1_4928" cx="0" cy="0" r="1" gradientUnits="userSpaceOnUse" gradientTransform="translate(19 44.6) rotate(90) scale(7)">
<stop stop-color="white"/>
<stop offset="1" stop-color="white" stop-opacity="0"/>
</radialGradient>
<linearGradient id="paint5_linear_1_4928" x1="19" y1="41.6" x2="19" y2="44.8" gradientUnits="userSpaceOnUse">
<stop stop-color="white"/>
<stop offset="1" stop-color="white" stop-opacity="0.1"/>
</linearGradient>
<clipPath id="clip0_1_4928">
<path d="M3 44.8C3 40.3196 3 38.0794 3.87195 36.3681C4.63893 34.8628 5.86278 33.6389 7.36808 32.8719C9.07937 32 11.3196 32 15.8 32H22.2C26.6804 32 28.9206 32 30.6319 32.8719C32.1372 33.6389 33.3611 34.8628 34.1281 36.3681C35 38.0794 35 40.3196 35 44.8V51.2C35 55.6804 35 57.9206 34.1281 59.6319C33.3611 61.1372 32.1372 62.3611 30.6319 63.1281C28.9206 64 26.6804 64 22.2 64H15.8C11.3196 64 9.07937 64 7.36808 63.1281C5.86278 62.3611 4.63893 61.1372 3.87195 59.6319C3 57.9206 3 55.6804 3 51.2V44.8Z" fill="white"/>
</clipPath>
<clipPath id="clip1_1_4928">
<rect width="32" height="32" fill="white" transform="translate(3 32)"/>
</clipPath>
</defs>
</svg>
